<svg width="296" height="126" viewBox="0 0 296 126" fill="none" xmlns="http://www.w3.org/2000/svg">
<path d="M209.364 5.65951C208.833 5.40962 206.527 4.44475 204.13 5.27624C205.208 5.27249 207.419 5.69125 207.636 7.39625C208.345 6.61268 209.083 5.91194 209.364 5.65951Z" fill="black"/>
<path d="M224.824 6.86245C225.267 7.61614 226.056 9.29242 225.801 10.1788C226.417 8.48784 228.567 6.47764 229.672 6.62568C227.365 6.25247 226.104 6.50973 224.824 6.86245Z" fill="black"/>
<path d="M244.826 12.7893C243.348 12.6763 241.712 12.9444 240.077 13.7955C239.417 16.3586 237.718 22.0097 236.195 24.1102C234.292 26.7357 232.743 28.7385 230.033 28.4347C228.878 28.4377 223.768 27.4296 223.583 24.854C223.864 23.432 224.223 20.4404 224.588 18.5888C223.986 20.4706 222.701 23.9414 222.028 24.5472C221.526 25.1407 220.3 26.2839 219.411 26.1086C218.3 25.8895 216.213 25.9394 215.099 24.5654C214.737 24.1187 214.295 23.583 213.887 22.9413C213.995 23.4242 213.917 24.2399 212.743 23.6389C211.275 22.8877 209.939 21.4699 209.225 20.4058C208.512 19.3417 207.129 16.9914 207.345 14.7256C207.561 12.4598 208.412 8.3672 209.057 7.21486C209.664 6.12995 210.048 5.35454 211.584 4.93757C210.516 5.17292 209.688 5.44246 209.364 5.65951C209.083 5.91194 208.345 6.61268 207.636 7.39625C207.074 7.51617 205.764 8.22732 205.023 10.1125C203.928 12.8974 204.957 18.6404 206.024 19.0818C206.433 22.856 202.566 21.4005 201.542 20.737C199.657 19.9957 198.909 15.6007 198.77 13.4958C198.159 17.9829 200.068 21.8312 203.279 22.4646C203.822 22.5451 204.564 22.628 205.317 22.6665C206.739 22.7394 208.199 22.654 208.43 22.0957C209.326 22.9865 210.432 23.9765 210.92 24.4013C211.424 24.2807 212.593 24.1634 213.234 24.6592C214.035 25.2789 216.304 26.6498 217.859 26.9566C219.414 27.2634 222.122 26.4124 222.92 25.8773C223.633 26.9414 225.501 28.0025 226.124 28.3561C226.954 28.8277 230.615 30.1654 232.699 28.9607C234.783 27.756 235.898 29.1299 236.52 29.4836C237.321 30.1033 239.233 30.9422 239.856 31.2958C240.657 31.9156 241.152 34.0906 240.976 34.9794L241.984 29.8689C240.919 30.1975 238.486 30.5177 237.274 29.1707C236.063 27.8237 236.76 24.7601 237.259 23.3967C238.941 19.7804 242.504 12.8163 244.826 12.7893Z" fill="black"/>
<path d="M239.574 42.0895L240.231 38.7567C239.903 40.0438 238.683 42.6493 236.379 43.1135C238.186 42.8081 239.504 42.4437 239.574 42.0895Z" fill="black"/>
<path d="M208.294 37.9968L210.968 24.443L210.92 24.4013C210.432 23.9765 209.326 22.9865 208.43 22.0957C208.98 22.8197 210.044 24.4455 209.904 25.1565C209.764 25.8675 208.09 33.5706 207.271 37.3333C207.141 37.9949 206.593 39.1015 205.423 38.5447C206.592 39.1706 207.659 39.5593 208.288 39.3806C208.157 39.0357 208.177 38.5909 208.294 37.9968Z" fill="black"/>
<path d="M203.279 22.4646L200.737 35.3518C200.971 35.5421 201.241 35.7545 201.536 35.9797L203.642 25.3062C203.957 23.7064 204.89 22.8799 205.317 22.6665C204.564 22.628 203.822 22.5451 203.279 22.4646Z" fill="black"/>
<path d="M225.07 16.1446C225.291 15.4186 225.757 13.8332 225.862 13.3C225.411 12.8416 225.082 12.9921 224.974 13.1246L225.07 16.1446Z" fill="black"/>
<path d="M210.968 24.443L208.294 37.9968C208.177 38.5909 208.157 39.0357 208.288 39.3806M210.968 24.443C210.953 24.4298 210.937 24.4159 210.92 24.4013M210.968 24.443L210.92 24.4013M239.574 42.0895C239.628 41.815 239.889 40.4933 240.231 38.7567M239.574 42.0895L240.231 38.7567M239.574 42.0895C239.504 42.4437 238.186 42.8081 236.379 43.1135M241.984 29.8689C243.565 28.4879 246.983 25.3609 248.009 23.9014C249.292 22.077 250.751 19.3638 250.567 16.7882C250.441 15.031 247.999 13.032 244.826 12.7893M241.984 29.8689C240.919 30.1975 238.486 30.5177 237.274 29.1707C236.063 27.8236 236.76 24.7601 237.259 23.3967C238.941 19.7804 242.504 12.8163 244.826 12.7893M241.984 29.8689C241.716 31.2301 241.346 33.1047 240.976 34.9794M241.984 29.8689L240.976 34.9794M240.077 13.7955C239.764 13.0413 239.977 9.62074 234.331 7.81457C232.41 7.1999 230.922 6.831 229.717 6.63299M240.077 13.7955C239.417 16.3586 237.718 22.0097 236.195 24.1102C234.292 26.7357 232.743 28.7385 230.033 28.4347C228.878 28.4377 223.768 27.4296 223.583 24.854C223.864 23.432 224.223 20.4404 224.588 18.5888C223.986 20.4706 222.701 23.9414 222.028 24.5472C221.526 25.1407 220.3 26.2839 219.411 26.1086C218.3 25.8895 216.213 25.9394 215.099 24.5654C214.737 24.1187 214.295 23.583 213.887 22.9413M240.077 13.7955C241.712 12.9444 243.348 12.6763 244.826 12.7893M224.824 6.86245C223.666 5.71069 219.976 4.52118 217 4.39577C215.231 4.32123 213.149 4.59271 211.584 4.93757M224.824 6.86245C225.267 7.61614 226.056 9.29242 225.801 10.1788M224.824 6.86245C226.104 6.50973 227.365 6.25247 229.672 6.62568M209.364 5.65951C208.833 5.40962 206.527 4.44475 204.13 5.27624M209.364 5.65951C209.083 5.91194 208.345 6.61268 207.636 7.39625M209.364 5.65951C209.688 5.44246 210.516 5.17292 211.584 4.93757M203.279 22.4646C202.998 23.8866 201.467 31.6486 200.737 35.3518M203.279 22.4646C200.068 21.8312 198.159 17.9829 198.77 13.4958M203.279 22.4646C203.822 22.5451 204.564 22.628 205.317 22.6665M203.279 22.4646L200.737 35.3518M200.737 35.3518C200.971 35.5421 201.241 35.7545 201.536 35.9797M208.288 39.3806C208.5 39.9385 209.108 40.2349 210.344 40.4787C214.744 41.5775 224.326 43.7908 227.453 43.8537C229.734 43.8995 233.422 43.5936 236.132 43.1543M208.288 39.3806C207.659 39.5593 206.592 39.1706 205.423 38.5447M229.717 6.63299C229.702 6.63053 229.687 6.62809 229.672 6.62568M229.717 6.63299C229.702 6.63014 229.687 6.62771 229.672 6.62568M204.13 5.27624C202.715 5.76743 201.267 6.88552 200.135 9.14821C199.405 10.6071 198.963 12.0831 198.77 13.4958M204.13 5.27624C205.208 5.27249 207.419 5.69125 207.636 7.39625M207.636 7.39625C207.074 7.51617 205.764 8.22732 205.023 10.1125C203.928 12.8974 204.957 18.6404 206.024 19.0818C206.433 22.856 202.566 21.4005 201.542 20.737C199.657 19.9957 198.909 15.6007 198.77 13.4958M245.052 12.8096C244.978 12.7951 244.903 12.7884 244.826 12.7893M212.593 17.3767C212.555 19.9085 213.04 21.6091 213.887 22.9413M213.887 22.9413C213.995 23.4242 213.917 24.2399 212.743 23.6389C211.275 22.8877 209.939 21.4699 209.225 20.4058C208.512 19.3417 207.129 16.9914 207.345 14.7256C207.561 12.4598 208.412 8.3672 209.057 7.21486C209.664 6.12995 210.048 5.35454 211.584 4.93757M225.801 10.1788C226.417 8.48784 228.567 6.47764 229.672 6.62568M225.801 10.1788C225.788 10.2126 225.777 10.2464 225.766 10.28C225.779 10.2475 225.791 10.2138 225.801 10.1788ZM208.43 22.0957C209.326 22.9865 210.432 23.9765 210.92 24.4013M208.43 22.0957C208.98 22.8197 210.044 24.4455 209.904 25.1565C209.764 25.8675 208.09 33.5706 207.271 37.3333C207.141 37.9949 206.593 39.1015 205.423 38.5447M208.43 22.0957C208.199 22.654 206.739 22.7394 205.317 22.6665M210.92 24.4013C211.424 24.2807 212.593 24.1634 213.234 24.6592C214.035 25.2789 216.304 26.6498 217.859 26.9566C219.414 27.2634 222.122 26.4124 222.92 25.8773C223.633 26.9414 225.501 28.0025 226.124 28.3561C226.954 28.8277 230.615 30.1654 232.699 28.9607C234.783 27.756 235.898 29.1299 236.52 29.4836C237.321 30.1033 239.233 30.9422 239.856 31.2958C240.657 31.9156 241.152 34.0906 240.976 34.9794M240.976 34.9794C240.716 36.2981 240.456 37.6168 240.231 38.7567M240.231 38.7567C239.903 40.0438 238.683 42.6493 236.379 43.1135M236.132 43.1543C236.215 43.1434 236.298 43.1298 236.379 43.1135M236.132 43.1543C236.215 43.1408 236.297 43.1272 236.379 43.1135M205.208 38.4281C205.282 38.473 205.353 38.5118 205.423 38.5447M205.208 38.4281C205.28 38.4678 205.352 38.5067 205.423 38.5447M205.208 38.4281C203.941 37.7261 202.578 36.7737 201.536 35.9797M205.317 22.6665C204.89 22.8799 203.957 23.7064 203.642 25.3062M203.642 25.3062C203.326 26.906 202.107 33.0885 201.536 35.9797M203.642 25.3062L201.536 35.9797M213.946 8.17914C213.373 9.91285 212.718 14.4005 212.677 15.7775M225.07 16.1446C225.291 15.4186 225.757 13.8332 225.862 13.3C225.411 12.8416 225.082 12.9921 224.974 13.1246L225.07 16.1446Z" stroke="black"/>
<circle cx="212.598" cy="36.0756" r="1.3118" transform="rotate(11.1591 212.598 36.0756)" stroke="black"/>
<path d="M214.93 28.6873C214.778 29.4617 214.14 29.8685 213.612 29.7642C213.083 29.66 212.648 29.0416 212.801 28.2672C212.954 27.4928 213.591 27.086 214.119 27.1903C214.648 27.2945 215.083 27.9129 214.93 28.6873Z" stroke="black"/>
<path d="M111.569 44.4936C111.569 46.66 111.157 48.6025 110.333 50.3213C109.51 52.0221 108.346 53.4723 106.842 54.6718C105.338 55.8535 103.539 56.7666 101.444 57.4111C99.3496 58.0377 97.04 58.351 94.5156 58.351C94.2113 58.351 93.9427 58.2705 93.71 58.1093C93.4951 57.9303 93.3877 57.6707 93.3877 57.3305C93.3877 57.062 93.4862 56.8292 93.6831 56.6323C93.88 56.4353 94.1217 56.3369 94.4082 56.3369C96.6641 56.3369 98.723 56.0773 100.585 55.5581C102.447 55.0389 104.04 54.278 105.365 53.2754C106.69 52.2548 107.72 51.0105 108.454 49.5424C109.188 48.0743 109.555 46.3914 109.555 44.4936C109.555 42.56 109.125 40.8413 108.266 39.3374C107.424 37.8335 106.234 36.5623 104.694 35.5239C103.172 34.4855 101.346 33.6977 99.2153 33.1606C97.1027 32.6235 94.7752 32.3549 92.2329 32.3549C89.8338 32.3549 87.5063 32.5519 85.2505 32.9458C83.0125 33.3396 80.9089 33.8947 78.9395 34.6108C76.9701 35.3269 75.1707 36.1863 73.5415 37.1889C71.9302 38.1915 70.5426 39.2926 69.3789 40.4921C68.2331 41.6917 67.3379 42.9808 66.6934 44.3593C66.0488 45.72 65.7266 47.1344 65.7266 48.6025C65.7266 49.8916 65.9504 51.0195 66.3979 51.9863C66.8455 52.9531 67.4364 53.7677 68.1704 54.4301C68.9224 55.0747 69.7817 55.5581 70.7485 55.8803C71.7153 56.2026 72.7269 56.3637 73.7832 56.3637C75.0365 56.3637 76.1465 56.2295 77.1133 55.9609C78.098 55.6923 78.9215 55.3969 79.584 55.0747C80.2643 54.7524 80.7835 54.457 81.1416 54.1884C81.4997 53.902 81.6966 53.7408 81.7324 53.705C81.9294 53.5081 82.1621 53.4096 82.4307 53.4096C82.6992 53.4096 82.932 53.5171 83.1289 53.7319C83.3438 53.9288 83.4512 54.1616 83.4512 54.4301C83.4512 54.7345 83.3438 54.9762 83.1289 55.1552C83.0931 55.191 82.8604 55.379 82.4307 55.7192C82.0189 56.0594 81.4102 56.4353 80.6045 56.8471C79.8167 57.241 78.8499 57.5991 77.7041 57.9213C76.5583 58.2436 75.2513 58.4047 73.7832 58.4047C72.4404 58.4047 71.1514 58.181 69.916 57.7334C68.6986 57.2858 67.6243 56.6412 66.6934 55.7998C65.7803 54.9404 65.0462 53.9109 64.4912 52.7114C63.9541 51.4939 63.6855 50.1243 63.6855 48.6025C63.6855 46.9375 64.0257 45.3351 64.7061 43.7954C65.4043 42.2378 66.3711 40.7876 67.6064 39.4448C68.8597 38.0841 70.3547 36.8488 72.0913 35.7387C73.828 34.6108 75.7526 33.653 77.8652 32.8652C79.9779 32.0595 82.2427 31.4419 84.6597 31.0122C87.0767 30.5646 89.5832 30.3408 92.1792 30.3408C95.0259 30.3408 97.6398 30.663 100.021 31.3076C102.402 31.9521 104.443 32.8831 106.144 34.1005C107.863 35.318 109.197 36.804 110.146 38.5586C111.094 40.2952 111.569 42.2736 111.569 44.4936ZM95.6167 38.102C95.8853 38.102 96.118 38.2005 96.3149 38.3974C96.5298 38.5765 96.6372 38.8182 96.6372 39.1225C96.6372 39.3016 96.5835 39.4627 96.4761 39.6059C96.3866 39.7491 96.2702 39.8834 96.127 40.0088C95.1243 40.7965 94.3187 41.6469 93.71 42.56C93.1191 43.4731 92.6626 44.4578 92.3403 45.5141C92.036 46.5525 91.8301 47.6626 91.7227 48.8442C91.6331 50.0258 91.5884 51.2612 91.5884 52.5503V55.934C91.5884 58.1541 91.3914 60.2667 90.9976 62.2719C90.6037 64.2592 89.9323 66.0048 88.9834 67.5088C88.0524 69.0127 86.7992 70.2032 85.2236 71.0805C83.6481 71.9757 81.6698 72.4233 79.2886 72.4233C78.2144 72.4233 77.158 72.289 76.1196 72.0205C75.0991 71.7698 74.1323 71.4028 73.2192 70.9194C72.3062 70.4181 71.4647 69.8094 70.6948 69.0932C69.925 68.3771 69.2625 67.5714 68.7075 66.6762C68.6717 66.6046 68.6359 66.5241 68.6001 66.4345C68.5643 66.3271 68.5464 66.2286 68.5464 66.1391C68.5464 65.8885 68.6359 65.6647 68.8149 65.4677C69.0119 65.2529 69.2625 65.1455 69.5669 65.1455C69.7459 65.1455 69.9071 65.1992 70.0503 65.3066C70.2114 65.3961 70.3457 65.5125 70.4531 65.6557C71.599 67.2491 72.897 68.4487 74.3472 69.2544C75.7974 70.0421 77.4445 70.436 79.2886 70.436C81.4012 70.436 83.12 70.0511 84.4448 69.2812C85.7876 68.4935 86.835 67.4282 87.5869 66.0854C88.3568 64.7247 88.876 63.1403 89.1445 61.332C89.431 59.5237 89.5742 57.5991 89.5742 55.5581V52.1474C89.5742 50.9479 89.6279 49.7125 89.7354 48.4414C89.8428 47.1523 90.0845 45.8991 90.4604 44.6816C90.8543 43.4463 91.4093 42.2825 92.1255 41.1904C92.8595 40.0804 93.8442 39.1046 95.0796 38.2631C95.1512 38.2273 95.2407 38.1915 95.3481 38.1557C95.4556 38.1199 95.5451 38.102 95.6167 38.102ZM129.616 63.5073C129.544 63.6505 129.392 63.9549 129.159 64.4204C128.944 64.868 128.658 65.3872 128.3 65.978C127.96 66.5688 127.557 67.1865 127.091 67.831C126.626 68.4755 126.107 69.0664 125.534 69.6035C124.961 70.1406 124.343 70.5882 123.681 70.9463C123.018 71.2864 122.32 71.4565 121.586 71.4565C120.548 71.4565 119.67 71.1253 118.954 70.4629C118.256 69.8004 117.746 68.9679 117.423 67.9653C116.815 68.9858 116.09 69.8004 115.248 70.4091C114.407 71 113.565 71.2954 112.724 71.2954C112.061 71.2954 111.461 71.179 110.924 70.9463C110.387 70.6956 109.931 70.3554 109.555 69.9257C109.179 69.4782 108.883 68.9589 108.668 68.3681C108.472 67.7773 108.373 67.1328 108.373 66.4345C108.373 65.038 108.606 63.8116 109.071 62.7553C109.555 61.6811 110.163 60.7859 110.897 60.0698C111.632 59.3536 112.437 58.8165 113.314 58.4585C114.21 58.1004 115.069 57.9213 115.893 57.9213C116.448 57.9213 116.958 58.0019 117.423 58.163C117.889 58.3063 118.283 58.4674 118.605 58.6464C118.945 58.8255 119.205 58.9956 119.384 59.1567C119.563 59.2999 119.661 59.3805 119.679 59.3984C119.876 59.6311 119.975 59.8728 119.975 60.1235C119.975 60.3921 119.876 60.6338 119.679 60.8486C119.482 61.0455 119.25 61.144 118.981 61.144C118.694 61.144 118.453 61.0455 118.256 60.8486C118.22 60.8128 118.139 60.7501 118.014 60.6606C117.889 60.5532 117.719 60.4458 117.504 60.3383C117.289 60.2309 117.029 60.1414 116.725 60.0698C116.439 59.9803 116.107 59.9355 115.731 59.9355C115.176 59.9355 114.586 60.0608 113.959 60.3115C113.332 60.5621 112.759 60.956 112.24 61.4931C111.721 62.0123 111.282 62.6748 110.924 63.4804C110.584 64.2682 110.414 65.2081 110.414 66.3003C110.414 66.6404 110.45 66.9895 110.521 67.3476C110.593 67.6878 110.718 68.0011 110.897 68.2876C111.076 68.574 111.318 68.8068 111.623 68.9858C111.927 69.1648 112.303 69.2544 112.75 69.2544C113.073 69.2544 113.44 69.1469 113.852 68.9321C114.281 68.7172 114.684 68.386 115.06 67.9384C115.454 67.4908 115.803 66.9269 116.107 66.2465C116.43 65.5662 116.653 64.7605 116.779 63.8296C116.815 63.5789 116.931 63.373 117.128 63.2119C117.325 63.0328 117.558 62.9433 117.826 62.9433C118.077 62.9433 118.292 63.0418 118.471 63.2387C118.668 63.4357 118.775 63.6595 118.793 63.9101C118.811 64.2503 118.847 64.7337 118.9 65.3603C118.954 65.969 119.07 66.5778 119.25 67.1865C119.446 67.7952 119.733 68.3234 120.109 68.771C120.485 69.2185 121.004 69.4423 121.667 69.4423C122.096 69.4423 122.517 69.326 122.929 69.0932C123.358 68.8605 123.77 68.5561 124.164 68.1801C124.576 67.7863 124.961 67.3476 125.319 66.8642C125.695 66.3629 126.035 65.8616 126.339 65.3603C126.644 64.859 126.912 64.3756 127.145 63.9101C127.378 63.4446 127.575 63.0418 127.736 62.7016C127.825 62.5047 127.951 62.3525 128.112 62.2451C128.291 62.1377 128.479 62.0839 128.676 62.0839C128.98 62.0839 129.222 62.2003 129.401 62.4331C129.598 62.6479 129.696 62.8807 129.696 63.1313C129.696 63.2566 129.669 63.382 129.616 63.5073ZM119.035 53.9199C119.142 54.081 119.196 54.2511 119.196 54.4301C119.196 54.6629 119.106 54.8688 118.927 55.0478C118.766 55.2268 118.56 55.3164 118.31 55.3164C118.005 55.3164 117.764 55.2 117.584 54.9672L115.382 51.852L113.126 54.9672C112.947 55.2 112.715 55.3164 112.428 55.3164C112.178 55.3164 111.963 55.2268 111.784 55.0478C111.605 54.8688 111.515 54.6629 111.515 54.4301C111.515 54.2153 111.578 54.0363 111.703 53.893L114.711 49.811C114.89 49.5782 115.132 49.4619 115.436 49.4619C115.74 49.4619 115.973 49.5872 116.134 49.8379L119.035 53.9199ZM149.516 44.1176C149.516 44.4041 149.417 44.6368 149.22 44.8159C149.023 44.977 148.782 45.0576 148.495 45.0576H134.879V45.353C134.879 46.4451 134.799 47.6088 134.638 48.8442C134.477 50.0796 134.253 51.3149 133.966 52.5503C133.698 53.7677 133.384 54.9583 133.026 56.122C132.686 57.2858 132.328 58.36 131.952 59.3447C131.594 60.3294 131.236 61.1888 130.878 61.9228C130.52 62.639 130.198 63.1761 129.911 63.5341C130.144 64.3577 130.421 65.1276 130.744 65.8437C131.066 66.542 131.424 67.1596 131.818 67.6967C132.23 68.2159 132.668 68.6277 133.134 68.9321C133.599 69.2365 134.101 69.3886 134.638 69.3886C135.264 69.3886 135.882 69.129 136.491 68.6098C137.117 68.0727 137.69 67.4461 138.209 66.7299C138.747 65.9959 139.212 65.2618 139.606 64.5278C140.018 63.7758 140.313 63.1761 140.492 62.7285C140.671 62.2988 140.985 62.0839 141.432 62.0839C141.736 62.0839 141.978 62.1914 142.157 62.4062C142.354 62.6211 142.453 62.8538 142.453 63.1045C142.453 63.2298 142.426 63.3551 142.372 63.4804C142.318 63.6058 142.184 63.8922 141.969 64.3398C141.772 64.7874 141.504 65.3066 141.164 65.8974C140.841 66.4882 140.456 67.1149 140.009 67.7773C139.579 68.4218 139.087 69.0127 138.532 69.5498C137.995 70.0869 137.413 70.5345 136.786 70.8925C136.16 71.2506 135.497 71.4296 134.799 71.4296C133.563 71.4296 132.453 71.0268 131.469 70.2212C130.484 69.4155 129.643 68.2876 128.944 66.8374C128.264 65.3872 127.745 63.6684 127.387 61.6811C127.029 59.6938 126.85 57.5185 126.85 55.1552C126.85 54.5644 126.859 53.8751 126.876 53.0874C126.894 52.2817 126.93 51.4402 126.984 50.563C127.038 49.6678 127.118 48.7547 127.226 47.8237C127.333 46.8748 127.476 45.9528 127.655 45.0576H118.014C117.728 45.0576 117.486 44.977 117.289 44.8159C117.092 44.6368 116.994 44.4041 116.994 44.1176C116.994 43.8312 117.092 43.6074 117.289 43.4463C117.486 43.2672 117.728 43.1777 118.014 43.1777H128.112C128.291 42.5332 128.497 41.9423 128.729 41.4052C128.98 40.8681 129.258 40.4026 129.562 40.0088C129.884 39.6149 130.233 39.3105 130.609 39.0957C131.003 38.8629 131.433 38.7465 131.898 38.7465C132.346 38.7465 132.731 38.8629 133.053 39.0957C133.393 39.3105 133.68 39.6149 133.913 40.0088C134.145 40.4026 134.324 40.8681 134.45 41.4052C134.593 41.9423 134.7 42.5332 134.772 43.1777H148.495C148.782 43.1777 149.023 43.2672 149.22 43.4463C149.417 43.6074 149.516 43.8312 149.516 44.1176ZM129.293 60.8486C129.831 59.667 130.314 58.3958 130.744 57.0351C131.191 55.6565 131.567 54.269 131.872 52.8725C132.194 51.476 132.436 50.1064 132.597 48.7636C132.776 47.4209 132.865 46.1855 132.865 45.0576H129.696C129.446 46.1676 129.24 47.5462 129.079 49.1933C128.935 50.8226 128.864 52.8099 128.864 55.1552C128.864 56.4622 128.9 57.5633 128.971 58.4585C129.043 59.3357 129.15 60.1324 129.293 60.8486ZM131.791 40.7607C131.63 40.7607 131.397 40.9397 131.093 41.2978C130.788 41.638 130.484 42.2646 130.18 43.1777H132.758C132.668 42.4257 132.534 41.8349 132.355 41.4052C132.194 40.9755 132.006 40.7607 131.791 40.7607ZM129.723 62.7822V62.809V62.7822ZM144.977 49.9184C144.977 50.5988 144.735 51.1806 144.252 51.664C143.786 52.1295 143.214 52.3623 142.533 52.3623C141.853 52.3623 141.271 52.1295 140.788 51.664C140.322 51.1806 140.089 50.5988 140.089 49.9184C140.089 49.5782 140.152 49.2649 140.277 48.9785C140.403 48.6741 140.573 48.4145 140.788 48.1997C141.02 47.9669 141.28 47.7879 141.566 47.6626C141.871 47.5372 142.193 47.4746 142.533 47.4746C142.873 47.4746 143.187 47.5372 143.473 47.6626C143.778 47.7879 144.037 47.9669 144.252 48.1997C144.485 48.4145 144.664 48.6741 144.789 48.9785C144.914 49.2649 144.977 49.5782 144.977 49.9184ZM140.626 65.6557C140.626 63.0776 140.788 60.5084 141.11 57.9482C141.146 57.6976 141.253 57.4827 141.432 57.3037C141.629 57.1067 141.88 57.0083 142.184 57.0083C142.453 57.0083 142.676 57.1157 142.855 57.3305C143.035 57.5275 143.124 57.7602 143.124 58.0288C143.124 58.1362 143.097 58.4585 143.043 58.9956C143.008 59.5327 142.954 60.1772 142.882 60.9292C142.829 61.6632 142.775 62.451 142.721 63.2924C142.685 64.116 142.667 64.8769 142.667 65.5752C142.667 66.5241 142.757 67.2939 142.936 67.8847C143.133 68.4576 143.375 68.9052 143.661 69.2275C143.965 69.5498 144.279 69.7646 144.601 69.872C144.941 69.9795 145.264 70.0332 145.568 70.0332C146.069 70.0332 146.588 69.8541 147.125 69.4961C147.663 69.138 148.209 68.6367 148.764 67.9921C149.337 67.3476 149.91 66.5778 150.482 65.6826C151.055 64.7695 151.619 63.7579 152.174 62.6479C152.264 62.4689 152.389 62.3346 152.55 62.2451C152.711 62.1377 152.89 62.0839 153.087 62.0839C153.374 62.0839 153.607 62.1914 153.786 62.4062C153.983 62.6211 154.081 62.8538 154.081 63.1045C154.081 63.2835 154.045 63.4357 153.974 63.561C153.759 63.9728 153.49 64.4741 153.168 65.0649C152.846 65.6557 152.479 66.2644 152.067 66.8911C151.655 67.5177 151.199 68.1443 150.697 68.771C150.214 69.3797 149.695 69.9347 149.14 70.436C148.585 70.9194 148.003 71.3133 147.394 71.6176C146.785 71.922 146.168 72.0742 145.541 72.0742C144.735 72.0742 144.028 71.9041 143.419 71.5639C142.811 71.2238 142.292 70.7672 141.862 70.1943C141.45 69.6214 141.137 68.95 140.922 68.1801C140.725 67.3924 140.626 66.5509 140.626 65.6557ZM143.473 49.9184C143.473 49.6678 143.375 49.4529 143.178 49.2739C142.999 49.0769 142.784 48.9785 142.533 48.9785C142.283 48.9785 142.068 49.0769 141.889 49.2739C141.71 49.4529 141.62 49.6678 141.62 49.9184C141.62 50.1691 141.71 50.3839 141.889 50.563C142.068 50.742 142.283 50.8315 142.533 50.8315C142.784 50.8315 142.999 50.742 143.178 50.563C143.375 50.3839 143.473 50.1691 143.473 49.9184ZM155.128 61.0634C155.021 61.3499 154.887 61.6722 154.726 62.0302C154.582 62.3883 154.412 62.7643 154.215 63.1582C154.054 63.4625 153.884 63.7042 153.705 63.8833C153.544 64.0444 153.329 64.125 153.061 64.125C152.756 64.125 152.514 64.0354 152.335 63.8564C152.156 63.6595 152.067 63.4357 152.067 63.185C152.067 63.0955 152.076 63.0239 152.094 62.9702C152.112 62.8986 152.156 62.7911 152.228 62.6479C152.694 61.7527 153.034 60.9739 153.249 60.3115C153.481 59.6311 153.669 58.924 153.812 58.1899C153.687 57.7781 153.598 57.429 153.544 57.1425C153.49 56.8561 153.463 56.5607 153.463 56.2563C153.463 55.6655 153.589 55.191 153.839 54.833C154.09 54.457 154.439 54.269 154.887 54.269C155.299 54.269 155.621 54.448 155.854 54.8061C156.104 55.1642 156.229 55.6028 156.229 56.122C156.229 56.4085 156.203 56.6949 156.149 56.9814C156.095 57.2679 156.024 57.6259 155.934 58.0556C156.346 59.0761 156.758 59.9803 157.169 60.768C157.581 61.5558 157.948 62.2809 158.271 62.9433C158.593 63.5879 158.852 64.1966 159.049 64.7695C159.264 65.3424 159.372 65.9153 159.372 66.4882C159.372 67.2402 159.219 67.9563 158.915 68.6367C158.611 69.317 158.109 69.8899 157.411 70.3554C157.501 70.3733 157.59 70.3823 157.68 70.3823C157.769 70.3823 157.859 70.3823 157.948 70.3823C158.969 70.3823 159.909 70.1495 160.768 69.684C161.627 69.2185 162.397 68.6188 163.078 67.8847C163.776 67.1328 164.394 66.3092 164.931 65.414C165.468 64.5009 165.933 63.5968 166.327 62.7016C166.506 62.2898 166.757 62.0839 167.079 62.0839C167.383 62.0839 167.616 62.1914 167.777 62.4062C167.956 62.6211 168.046 62.8538 168.046 63.1045C168.046 63.2477 168.019 63.382 167.965 63.5073C167.768 63.9907 167.509 64.5457 167.187 65.1723C166.882 65.781 166.506 66.4166 166.059 67.0791C165.629 67.7236 165.128 68.3592 164.555 68.9858C163.982 69.6124 163.337 70.1764 162.621 70.6777C161.923 71.1611 161.153 71.546 160.312 71.8325C159.47 72.1368 158.548 72.289 157.545 72.289C156.346 72.289 155.227 72.0742 154.188 71.6445C153.168 71.2327 152.335 70.5434 151.691 69.5766C151.583 69.4155 151.53 69.2454 151.53 69.0664C151.53 68.7978 151.628 68.5651 151.825 68.3681C152.04 68.1533 152.282 68.0459 152.55 68.0459C152.837 68.0459 153.078 68.1443 153.275 68.3413C153.293 68.3771 153.356 68.4397 153.463 68.5293C153.571 68.6009 153.696 68.6904 153.839 68.7978C154 68.8873 154.18 68.9679 154.376 69.0395C154.591 69.1111 154.806 69.1469 155.021 69.1469C155.451 69.1469 155.809 69.0574 156.095 68.8784C156.4 68.6993 156.641 68.4845 156.82 68.2338C156.999 67.9653 157.125 67.6878 157.196 67.4013C157.286 67.097 157.331 66.8374 157.331 66.6225C157.331 66.1749 157.259 65.7273 157.116 65.2797C156.972 64.8322 156.785 64.3846 156.552 63.937C156.337 63.4894 156.095 63.0328 155.827 62.5673C155.576 62.0839 155.343 61.5826 155.128 61.0634ZM169.093 61.0634C168.986 61.3499 168.852 61.6722 168.69 62.0302C168.547 62.3883 168.377 62.7643 168.18 63.1582C168.019 63.4625 167.849 63.7042 167.67 63.8833C167.509 64.0444 167.294 64.125 167.025 64.125C166.721 64.125 166.479 64.0354 166.3 63.8564C166.121 63.6595 166.032 63.4357 166.032 63.185C166.032 63.0955 166.041 63.0239 166.059 62.9702C166.076 62.8986 166.121 62.7911 166.193 62.6479C166.658 61.7527 166.999 60.9739 167.213 60.3115C167.446 59.6311 167.634 58.924 167.777 58.1899C167.652 57.7781 167.562 57.429 167.509 57.1425C167.455 56.8561 167.428 56.5607 167.428 56.2563C167.428 55.6655 167.554 55.191 167.804 54.833C168.055 54.457 168.404 54.269 168.852 54.269C169.263 54.269 169.586 54.448 169.818 54.8061C170.069 55.1642 170.194 55.6028 170.194 56.122C170.194 56.4085 170.167 56.6949 170.114 56.9814C170.06 57.2679 169.988 57.6259 169.899 58.0556C170.311 59.0761 170.722 59.9803 171.134 60.768C171.546 61.5558 171.913 62.2809 172.235 62.9433C172.558 63.5879 172.817 64.1966 173.014 64.7695C173.229 65.3424 173.336 65.9153 173.336 66.4882C173.336 67.2402 173.184 67.9563 172.88 68.6367C172.576 69.317 172.074 69.8899 171.376 70.3554C171.465 70.3733 171.555 70.3823 171.645 70.3823C171.734 70.3823 171.824 70.3823 171.913 70.3823C172.934 70.3823 173.874 70.1495 174.733 69.684C175.592 69.2185 176.362 68.6188 177.042 67.8847C177.741 67.1328 178.358 66.3092 178.896 65.414C179.433 64.5009 179.898 63.5968 180.292 62.7016C180.471 62.2898 180.722 62.0839 181.044 62.0839C181.348 62.0839 181.581 62.1914 181.742 62.4062C181.921 62.6211 182.011 62.8538 182.011 63.1045C182.011 63.2477 181.984 63.382 181.93 63.5073C181.733 63.9907 181.474 64.5457 181.151 65.1723C180.847 65.781 180.471 66.4166 180.023 67.0791C179.594 67.7236 179.092 68.3592 178.52 68.9858C177.947 69.6124 177.302 70.1764 176.586 70.6777C175.888 71.1611 175.118 71.546 174.276 71.8325C173.435 72.1368 172.513 72.289 171.51 72.289C170.311 72.289 169.192 72.0742 168.153 71.6445C167.133 71.2327 166.3 70.5434 165.656 69.5766C165.548 69.4155 165.495 69.2454 165.495 69.0664C165.495 68.7978 165.593 68.5651 165.79 68.3681C166.005 68.1533 166.247 68.0459 166.515 68.0459C166.802 68.0459 167.043 68.1443 167.24 68.3413C167.258 68.3771 167.321 68.4397 167.428 68.5293C167.536 68.6009 167.661 68.6904 167.804 68.7978C167.965 68.8873 168.144 68.9679 168.341 69.0395C168.556 69.1111 168.771 69.1469 168.986 69.1469C169.416 69.1469 169.774 69.0574 170.06 68.8784C170.364 68.6993 170.606 68.4845 170.785 68.2338C170.964 67.9653 171.09 67.6878 171.161 67.4013C171.251 67.097 171.295 66.8374 171.295 66.6225C171.295 66.1749 171.224 65.7273 171.081 65.2797C170.937 64.8322 170.749 64.3846 170.517 63.937C170.302 63.4894 170.06 63.0328 169.792 62.5673C169.541 62.0839 169.308 61.5826 169.093 61.0634ZM183.3 68.0459C183.676 68.5651 184.159 68.9858 184.75 69.3081C185.341 69.6124 186.066 69.7646 186.925 69.7646C187.803 69.7646 188.599 69.5587 189.315 69.1469C190.032 68.7172 190.685 68.1622 191.276 67.4819C191.867 66.8016 192.395 66.0407 192.86 65.1992C193.326 64.3577 193.747 63.5162 194.123 62.6748C194.212 62.4778 194.337 62.3346 194.499 62.2451C194.66 62.1377 194.839 62.0839 195.036 62.0839C195.34 62.0839 195.582 62.1914 195.761 62.4062C195.958 62.6211 196.056 62.8538 196.056 63.1045C196.056 63.194 196.047 63.2745 196.029 63.3462C196.011 63.3999 195.985 63.4625 195.949 63.5341C194.713 66.2555 193.362 68.3055 191.894 69.684C190.443 71.0626 188.796 71.7698 186.952 71.8056C185.771 71.8056 184.75 71.5729 183.891 71.1074C183.031 70.6598 182.324 70.0779 181.769 69.3618C181.214 68.6277 180.802 67.8042 180.534 66.8911C180.265 65.978 180.131 65.0649 180.131 64.1518C180.131 63.2387 180.238 62.3973 180.453 61.6274C180.686 60.8575 181.008 60.1862 181.42 59.6132C181.85 59.0403 182.351 58.5927 182.924 58.2705C183.515 57.9482 184.159 57.7871 184.857 57.7871C185.269 57.7871 185.672 57.8766 186.066 58.0556C186.478 58.2168 186.845 58.4585 187.167 58.7807C187.489 59.0851 187.749 59.4611 187.946 59.9087C188.143 60.3562 188.241 60.8665 188.241 61.4394C188.241 62.1735 188.116 62.8628 187.865 63.5073C187.615 64.1518 187.265 64.7516 186.818 65.3066C186.388 65.8616 185.869 66.3719 185.26 66.8374C184.652 67.3029 183.998 67.7057 183.3 68.0459ZM182.494 66.3003C183.049 66.0675 183.55 65.7721 183.998 65.414C184.464 65.056 184.857 64.6621 185.18 64.2324C185.502 63.8027 185.753 63.3551 185.932 62.8896C186.111 62.4062 186.2 61.9228 186.2 61.4394C186.2 60.9023 186.066 60.4995 185.797 60.2309C185.529 59.9445 185.215 59.8012 184.857 59.8012C184.374 59.8012 183.962 59.9355 183.622 60.2041C183.282 60.4726 183.004 60.8217 182.79 61.2514C182.575 61.6811 182.414 62.1645 182.306 62.7016C182.217 63.2208 182.172 63.74 182.172 64.2592C182.172 64.5815 182.199 64.9217 182.252 65.2797C182.324 65.6378 182.405 65.978 182.494 66.3003ZM196.969 59.9624C196.898 60.4458 196.808 60.9023 196.701 61.332C196.593 61.7438 196.486 62.1108 196.378 62.4331C196.289 62.7374 196.208 62.9881 196.137 63.185C196.065 63.382 196.02 63.4894 196.002 63.5073C195.823 63.9191 195.51 64.125 195.062 64.125C194.812 64.125 194.579 64.0354 194.364 63.8564C194.149 63.6595 194.042 63.4178 194.042 63.1313C194.042 63.0239 194.06 62.9433 194.096 62.8896C194.132 62.8359 194.185 62.7285 194.257 62.5673C194.328 62.4062 194.418 62.1377 194.525 61.7617C194.633 61.3857 194.767 60.8038 194.928 60.0161C194.624 60.0161 194.311 60.0071 193.988 59.9892C193.666 59.9713 193.371 59.9087 193.102 59.8012C192.816 59.6938 192.583 59.5237 192.404 59.291C192.225 59.0582 192.135 58.736 192.135 58.3242C192.135 58.0198 192.225 57.608 192.404 57.0888C192.565 56.5696 192.789 56.0594 193.075 55.5581C193.362 55.0568 193.684 54.6271 194.042 54.269C194.4 53.893 194.758 53.705 195.116 53.705C195.528 53.705 195.859 53.8572 196.11 54.1616C196.378 54.4659 196.584 54.8419 196.728 55.2895C196.871 55.7192 196.969 56.1757 197.023 56.6591C197.095 57.1425 197.13 57.5633 197.13 57.9213C197.435 57.9213 197.73 57.9213 198.017 57.9213C198.321 57.9034 198.607 57.8945 198.876 57.8945C199.896 57.8945 200.675 58.1183 201.212 58.5659C201.75 59.0135 202.018 59.7475 202.018 60.768C202.018 61.1798 201.991 61.6095 201.938 62.0571C201.884 62.5047 201.821 62.9702 201.75 63.4536C201.678 63.9191 201.615 64.3846 201.562 64.8501C201.508 65.3156 201.481 65.7721 201.481 66.2197C201.481 66.8642 201.57 67.4013 201.75 67.831C201.929 68.2428 202.152 68.574 202.421 68.8247C202.689 69.0753 202.976 69.2544 203.28 69.3618C203.585 69.4513 203.862 69.4961 204.113 69.4961C204.883 69.4961 205.608 69.2454 206.288 68.7441C206.968 68.2428 207.595 67.643 208.168 66.9448C208.741 66.2286 209.251 65.4767 209.699 64.6889C210.164 63.9012 210.549 63.2119 210.854 62.6211C210.943 62.4599 211.068 62.3346 211.229 62.2451C211.391 62.1556 211.561 62.1108 211.74 62.1108C212.062 62.1108 212.313 62.2182 212.492 62.4331C212.671 62.63 212.76 62.8538 212.76 63.1045C212.76 63.2835 212.724 63.4446 212.653 63.5879C212.241 64.3219 211.758 65.1544 211.203 66.0854C210.666 66.9985 210.048 67.8579 209.35 68.6635C208.651 69.4692 207.864 70.1495 206.986 70.7046C206.127 71.2596 205.178 71.5371 204.14 71.5371C203.495 71.5371 202.886 71.4117 202.313 71.1611C201.741 70.9283 201.239 70.5882 200.81 70.1406C200.398 69.6751 200.067 69.1111 199.816 68.4487C199.565 67.7684 199.44 67.0074 199.44 66.166C199.44 65.2708 199.529 64.3846 199.708 63.5073C199.888 62.6121 199.977 61.7617 199.977 60.956C199.977 60.6158 199.896 60.3652 199.735 60.2041C199.592 60.025 199.261 59.9355 198.742 59.9355C198.491 59.9355 198.214 59.9355 197.909 59.9355C197.623 59.9355 197.309 59.9445 196.969 59.9624ZM195.17 57.9751C195.17 57.8497 195.161 57.6886 195.143 57.4917C195.143 57.2768 195.125 57.0709 195.089 56.874C195.071 56.677 195.036 56.507 194.982 56.3637C194.946 56.2205 194.901 56.1489 194.848 56.1489C194.794 56.1489 194.722 56.2205 194.633 56.3637C194.561 56.4891 194.481 56.6502 194.391 56.8471C194.302 57.0262 194.221 57.2231 194.149 57.438C194.078 57.6528 194.024 57.8318 193.988 57.9751H195.17ZM215.231 49.9184C215.231 50.5988 214.989 51.1806 214.506 51.664C214.04 52.1295 213.467 52.3623 212.787 52.3623C212.107 52.3623 211.525 52.1295 211.042 51.664C210.576 51.1806 210.343 50.5988 210.343 49.9184C210.343 49.5782 210.406 49.2649 210.531 48.9785C210.657 48.6741 210.827 48.4145 211.042 48.1997C211.274 47.9669 211.534 47.7879 211.82 47.6626C212.125 47.5372 212.447 47.4746 212.787 47.4746C213.127 47.4746 213.441 47.5372 213.727 47.6626C214.031 47.7879 214.291 47.9669 214.506 48.1997C214.739 48.4145 214.918 48.6741 215.043 48.9785C215.168 49.2649 215.231 49.5782 215.231 49.9184ZM210.88 65.6557C210.88 63.0776 211.042 60.5084 211.364 57.9482C211.4 57.6976 211.507 57.4827 211.686 57.3037C211.883 57.1067 212.134 57.0083 212.438 57.0083C212.707 57.0083 212.93 57.1157 213.109 57.3305C213.288 57.5275 213.378 57.7602 213.378 58.0288C213.378 58.1362 213.351 58.4585 213.297 58.9956C213.262 59.5327 213.208 60.1772 213.136 60.9292C213.083 61.6632 213.029 62.451 212.975 63.2924C212.939 64.116 212.921 64.8769 212.921 65.5752C212.921 66.5241 213.011 67.2939 213.19 67.8847C213.387 68.4576 213.629 68.9052 213.915 69.2275C214.219 69.5498 214.533 69.7646 214.855 69.872C215.195 69.9795 215.517 70.0332 215.822 70.0332C216.323 70.0332 216.842 69.8541 217.379 69.4961C217.917 69.138 218.463 68.6367 219.018 67.9921C219.59 67.3476 220.163 66.5778 220.736 65.6826C221.309 64.7695 221.873 63.7579 222.428 62.6479C222.518 62.4689 222.643 62.3346 222.804 62.2451C222.965 62.1377 223.144 62.0839 223.341 62.0839C223.628 62.0839 223.861 62.1914 224.04 62.4062C224.236 62.6211 224.335 62.8538 224.335 63.1045C224.335 63.2835 224.299 63.4357 224.228 63.561C224.013 63.9728 223.744 64.4741 223.422 65.0649C223.1 65.6557 222.733 66.2644 222.321 66.8911C221.909 67.5177 221.452 68.1443 220.951 68.771C220.468 69.3797 219.949 69.9347 219.394 70.436C218.839 70.9194 218.257 71.3133 217.648 71.6176C217.039 71.922 216.422 72.0742 215.795 72.0742C214.989 72.0742 214.282 71.9041 213.673 71.5639C213.065 71.2238 212.545 70.7672 212.116 70.1943C211.704 69.6214 211.391 68.95 211.176 68.1801C210.979 67.3924 210.88 66.5509 210.88 65.6557ZM213.727 49.9184C213.727 49.6678 213.629 49.4529 213.432 49.2739C213.253 49.0769 213.038 48.9785 212.787 48.9785C212.536 48.9785 212.322 49.0769 212.143 49.2739C211.964 49.4529 211.874 49.6678 211.874 49.9184C211.874 50.1691 211.964 50.3839 212.143 50.563C212.322 50.742 212.536 50.8315 212.787 50.8315C213.038 50.8315 213.253 50.742 213.432 50.563C213.629 50.3839 213.727 50.1691 213.727 49.9184ZM225.624 68.0459C226 68.5651 226.483 68.9858 227.074 69.3081C227.665 69.6124 228.39 69.7646 229.25 69.7646C230.127 69.7646 230.924 69.5587 231.64 69.1469C232.356 68.7172 233.009 68.1622 233.6 67.4819C234.191 66.8016 234.719 66.0407 235.185 65.1992C235.65 64.3577 236.071 63.5162 236.447 62.6748C236.536 62.4778 236.662 62.3346 236.823 62.2451C236.984 62.1377 237.163 62.0839 237.36 62.0839C237.664 62.0839 237.906 62.1914 238.085 62.4062C238.282 62.6211 238.38 62.8538 238.38 63.1045C238.38 63.194 238.371 63.2745 238.354 63.3462C238.336 63.3999 238.309 63.4625 238.273 63.5341C237.038 66.2555 235.686 68.3055 234.218 69.684C232.768 71.0626 231.12 71.7698 229.276 71.8056C228.095 71.8056 227.074 71.5729 226.215 71.1074C225.355 70.6598 224.648 70.0779 224.093 69.3618C223.538 68.6277 223.126 67.8042 222.858 66.8911C222.589 65.978 222.455 65.0649 222.455 64.1518C222.455 63.2387 222.562 62.3973 222.777 61.6274C223.01 60.8575 223.332 60.1862 223.744 59.6132C224.174 59.0403 224.675 58.5927 225.248 58.2705C225.839 57.9482 226.483 57.7871 227.182 57.7871C227.593 57.7871 227.996 57.8766 228.39 58.0556C228.802 58.2168 229.169 58.4585 229.491 58.7807C229.813 59.0851 230.073 59.4611 230.27 59.9087C230.467 60.3562 230.565 60.8665 230.565 61.4394C230.565 62.1735 230.44 62.8628 230.189 63.5073C229.939 64.1518 229.59 64.7516 229.142 65.3066C228.712 65.8616 228.193 66.3719 227.584 66.8374C226.976 67.3029 226.322 67.7057 225.624 68.0459ZM224.818 66.3003C225.373 66.0675 225.875 65.7721 226.322 65.414C226.788 65.056 227.182 64.6621 227.504 64.2324C227.826 63.8027 228.077 63.3551 228.256 62.8896C228.435 62.4062 228.524 61.9228 228.524 61.4394C228.524 60.9023 228.39 60.4995 228.122 60.2309C227.853 59.9445 227.54 59.8012 227.182 59.8012C226.698 59.8012 226.286 59.9355 225.946 60.2041C225.606 60.4726 225.329 60.8217 225.114 61.2514C224.899 61.6811 224.738 62.1645 224.63 62.7016C224.541 63.2208 224.496 63.74 224.496 64.2592C224.496 64.5815 224.523 64.9217 224.577 65.2797C224.648 65.6378 224.729 65.978 224.818 66.3003Z" fill="black"/>
<path d="M79.7969 106V91.7812H83.7715C84.9368 91.7812 85.9818 92.0481 86.9062 92.582C87.8307 93.1093 88.5501 93.8678 89.0645 94.8574C89.5853 95.847 89.8457 96.9733 89.8457 98.2363V99.5449C89.8457 100.814 89.5885 101.941 89.0742 102.924C88.5599 103.907 87.834 104.665 86.8965 105.199C85.9655 105.733 84.8945 106 83.6836 106H79.7969ZM80.998 92.8066V104.984H83.6934C85.1908 104.984 86.3919 104.49 87.2969 103.5C88.2018 102.504 88.6543 101.159 88.6543 99.4668V98.2168C88.6543 96.5826 88.2083 95.2741 87.3164 94.291C86.4245 93.3079 85.2493 92.8131 83.791 92.8066H80.998ZM110.754 99.1836H104.104V104.984H111.75V106H102.902V91.7812H111.701V92.8066H104.104V98.1679H110.754V99.1836ZM144.465 100.082H140.334V106H139.123V91.7812H143.742C145.259 91.7812 146.444 92.1491 147.297 92.8847C148.15 93.6204 148.576 94.6491 148.576 95.9707C148.576 96.8821 148.309 97.6862 147.775 98.3828C147.242 99.0794 146.525 99.5612 145.627 99.8281L149.182 105.873V106H147.902L144.465 100.082ZM140.334 99.0566H144.016C145.025 99.0566 145.835 98.7701 146.447 98.1972C147.059 97.6243 147.365 96.8821 147.365 95.9707C147.365 94.9681 147.046 94.1901 146.408 93.6367C145.77 93.0833 144.875 92.8066 143.723 92.8066H140.334V99.0566ZM169.699 99.1836H163.049V104.984H170.695V106H161.848V91.7812H170.646V92.8066H163.049V98.1679H169.699V99.1836ZM168.82 90.4824V90.58H167.736L166.096 88.7929L164.465 90.58H163.4V90.4531L165.725 87.9629H166.467L168.82 90.4824ZM187.521 104.242L187.6 104.545L187.688 104.242L192.16 91.7812H193.479L188.186 106H187.033L181.74 91.7812H183.049L187.521 104.242ZM213.43 99.1836H206.779V104.984H214.426V106H205.578V91.7812H214.377V92.8066H206.779V98.1679H213.43V99.1836Z" fill="black"/>
<path d="M61.5009 79C53.608 79 52.3656 87.0317 52.731 91.0476V97.619L52.731 102L52.731 115.143C52.731 122.152 58.5776 124.635 61.5009 125C115.582 124.27 225.718 122.809 233.611 122.809C241.503 122.809 243.477 115.508 243.477 111.857V102.636V97.619V91.0476C243.477 81.4095 236.899 79 233.611 79C238.872 79.8762 239.457 86.6666 239.092 89.9523V110.762C239.092 115.143 232.514 116.238 229.226 116.238H134.949C113.39 115.873 68.9554 115.143 63.6934 115.143C57.116 115.143 56.0197 103.095 56.0197 92.1428C56.0197 83.3809 59.6739 79.7301 61.5009 79Z" fill="black"/>
<path d="M1.20774 95.4285C0.111498 99.8095 3.40022 105.286 9.97766 105.286C16.5551 105.286 34.0949 102 36.2874 102H52.731C49.4873 101.5 42.5 101 40 101C34 101 20.5 102 14 103C3.2 104.2 -0.5 95.4285 3.7318 91.5C2.45031 92.5164 1.60881 93.8257 1.20774 95.4285Z" fill="black"/>
<path d="M280.749 106.381C284.038 106.381 295 104.19 295 97.619C295 93.7254 291.921 91.3698 288.5 90.0965C296 93.5 293 101 285 103.5C278 104.19 275 103.5 273 103.5C271 103.5 245.453 100.771 243.477 102.636C243.477 102.636 258.824 104.19 261.017 104.19C263.209 104.19 277.46 106.381 280.749 106.381Z" fill="black"/>
<path d="M52.731 91.0476C52.3656 87.0317 53.608 79 61.5009 79M52.731 91.0476C52.731 92.6716 52.731 94.9886 52.731 97.619M52.731 91.0476V97.619M61.5009 79C69.3938 79 179.529 79 233.611 79M61.5009 79C59.6739 79.7301 56.0197 83.3809 56.0197 92.1428C56.0197 103.095 57.116 115.143 63.6934 115.143C68.9554 115.143 113.39 115.873 134.949 116.238H229.226C232.514 116.238 239.092 115.143 239.092 110.762M233.611 79C236.899 79 243.477 81.4095 243.477 91.0476M233.611 79C238.872 79.8762 239.457 86.6666 239.092 89.9523M243.477 91.0476C243.477 93.3336 243.477 95.5417 243.477 97.619M243.477 91.0476V97.619M243.477 111.857C243.477 115.508 241.503 122.809 233.611 122.809C225.718 122.809 115.582 124.27 61.5009 125C58.5776 124.635 52.731 122.152 52.731 115.143M243.477 111.857C243.477 110.222 243.477 106.918 243.477 102.636M243.477 111.857V102.636M52.731 115.143C52.731 111.539 52.731 106.622 52.731 102M52.731 115.143L52.731 102M52.731 97.619C49.4423 97.2539 41.3301 96.0857 35.1912 94.3333C27.5175 92.1428 22.0363 88.8571 14.3626 88.8571C9.49644 88.8571 5.95298 89.7382 3.7318 91.5M52.731 97.619C52.731 99.0103 52.731 100.489 52.731 102M52.731 97.619L52.731 102M36.2874 102C34.0949 102 16.5551 105.286 9.97766 105.286C3.40022 105.286 0.111498 99.8095 1.20774 95.4285C1.60881 93.8257 2.45031 92.5164 3.7318 91.5M36.2874 102C38.0414 102 47.9806 102 52.731 102M36.2874 102H52.731M52.731 102C49.4873 101.5 42.5 101 40 101C34 101 20.5 102 14 103C3.2 104.2 -0.5 95.4285 3.7318 91.5M243.477 97.619C249.323 96.5238 261.455 94.1142 263.209 93.2381C265.402 92.1428 277.46 88.8571 281.845 88.8571C283.632 88.8571 286.147 89.2208 288.5 90.0965M243.477 97.619C243.477 99.398 243.477 101.081 243.477 102.636M243.477 97.619V102.636M243.477 102.636C243.477 102.636 258.824 104.19 261.017 104.19C263.209 104.19 277.46 106.381 280.749 106.381C284.038 106.381 295 104.19 295 97.619C295 93.7254 291.921 91.3698 288.5 90.0965M243.477 102.636C245.453 100.771 271 103.5 273 103.5C275 103.5 278 104.19 285 103.5C293 101 296 93.5 288.5 90.0965M239.092 110.762C239.092 106.381 239.092 95.0635 239.092 89.9523M239.092 110.762V89.9523" stroke="black" stroke-width="2"/>
</svg>
